<svg xmlns="http://www.w3.org/2000/svg" viewBox="0 0 124 33"><path d="M46.2 6.7h-8c-.5 0-1 .4-1.1.9l-3.2 20.5c-.1.4.2.7.6.7h4.1c.4 0 .7-.3.8-.6l.9-5.8c.1-.5.5-.9 1.1-.9h2.4c5.1 0 8.1-2.5 8.9-7.4.3-2.2 0-3.9-1-5.1-1.1-1.4-3-2.3-5.5-2.3zm.9 7.3c-.4 2.8-2.6 2.8-4.6 2.8h-1.2l.8-5.3c0-.3.3-.5.6-.5h.5c1.4 0 2.7 0 3.4.8.4.5.5 1.2.5 2.2z" fill="#003087"/><path d="M74 13.9h-4c-.3 0-.6.2-.6.5l-.2 1.1-.3-.4c-.9-1.2-2.7-1.6-4.6-1.6-4.3 0-7.9 3.2-8.6 7.8-.4 2.3.1 4.4 1.5 5.9 1.2 1.4 2.9 2 5 2 3.5 0 5.5-2.3 5.5-2.3l-.2 1.1c-.1.4.2.7.6.7h3.6c.5 0 1-.4 1.1-.9l2.1-14.2c0-.3-.3-.7-.9-.7zm-5.5 7.5c-.4 2.2-2.1 3.7-4.4 3.7-1.1 0-2-.4-2.5-1-.5-.7-.7-1.6-.5-2.6.3-2.2 2.2-3.7 4.4-3.7 1.1 0 2 .4 2.5 1 .6.7.7 1.6.5 2.6z" fill="#003087"/><path d="M97 6.7h-8c-.6 0-1 .4-1.1.9l-3.2 20.5c-.1.4.2.7.6.7h4.3c.4 0 .7-.3.7-.6l.9-5.7c.1-.5.6-.9 1.1-.9h2.5c5.1 0 8.1-2.5 8.8-7.4.4-2.2 0-3.9-1-5.1-1-1.4-3-2.4-5.6-2.4zm.9 7.3c-.4 2.8-2.6 2.8-4.6 2.8h-1.2l.8-5.3c.1-.3.3-.5.6-.5h.6c1.4 0 2.7 0 3.4.8.3.5.5 1.2.4 2.2z" fill="#0070ba"/></svg>
