<svg xmlns="http://www.w3.org/2000/svg" viewBox="0 0 750 471"><rect width="750" height="471" rx="40" fill="#1a1f71"/><path d="M278 334L312 138h51l-34 196h-51zm246-192c-10-4-26-8-45-8-50 0-85 25-85 62 0 27 25 42 44 51 20 9 26 15 26 23 0 13-16 18-30 18-20 0-31-3-47-10l-7-3-7 42c12 5 33 10 56 10 53 0 87-25 88-64 0-21-13-38-42-51-18-9-28-14-28-23 0-8 9-16 29-16 16 0 28 3 38 7l5 2 7-40zm137-4h-40c-12 0-21 3-27 16L513 334h53l11-28h65l6 28h47L662 138h-1zm-62 151c4-11 20-53 20-53l7-18 4 16s10 45 12 55h-43zM233 138l-50 133-5-26c-9-30-38-62-70-79l45 168h53l80-196h-53z" fill="#fff"/><path d="M131 138H53l-1 4c63 15 105 53 122 98l-18-86c-3-12-12-15-25-16z" fill="#f9a51a"/></svg>
